<?xml version="1.0" encoding="utf-8"?>
<!-- Generator: Adobe Illustrator 26.0.3, SVG Export Plug-In . SVG Version: 6.00 Build 0)  -->
<svg version="1.1" id="Camada_1" xmlns="http://www.w3.org/2000/svg" xmlns:xlink="http://www.w3.org/1999/xlink" x="0px" y="0px"
	 width="340.6px" height="106.7px" viewBox="0 0 340.6 106.7" style="enable-background:new 0 0 340.6 106.7;" xml:space="preserve"
	>
<style type="text/css">
	.st0{fill:#55A3B4;}
	.st1{fill:#1C1C1C;}
</style>
<path class="st0" d="M7,80.8v-19h12v4.1h-7.2V70h6v4.1h-6v6.7C11.8,80.8,7,80.8,7,80.8z"/>
<path class="st0" d="M32.3,77.3h-6.2l-0.9,3.5h-5c0.9-3.3,1.9-6.8,3-10.3c1.2-3.5,2.3-6.4,3.4-8.7h5c1.1,2.3,2.2,5.2,3.4,8.8
	c1.2,3.5,2.2,7,3,10.3h-5L32.3,77.3z M34.5,55.8l-3.3,4.7h-4l2.4-4.7H34.5z M27.1,73.2h4.1c-0.8-3.1-1.5-5.2-2-6.3
	C28.6,68,28,70.1,27.1,73.2z"/>
<path class="st0" d="M48.3,81.1c-2.9,0-5.1-0.9-6.7-2.6c-1.6-1.8-2.4-4.1-2.4-7.1s0.8-5.5,2.4-7.3c1.6-1.8,3.9-2.7,7-2.7
	c1.5,0,3,0.3,4.6,1l-1.1,4.1c-1.5-0.5-2.6-0.8-3.4-0.8c-1.6,0-2.7,0.5-3.4,1.4c-0.7,1-1.1,2.4-1.1,4.2c0,1.9,0.4,3.3,1.1,4.2
	c0.7,0.9,1.8,1.4,3.3,1.4c1.3,0,2.6-0.4,3.9-1.1l0.9,4.1C52,80.7,50.3,81.1,48.3,81.1C48.4,81.1,48.3,81.1,48.3,81.1z"/>
<path class="st0" d="M55.8,61.7h4.8v19h-4.8V61.7z"/>
<path class="st0" d="M63.8,61.7h4.8v15h7.1v4.1H63.8V61.7z"/>
<path class="st1" d="M9.4,102.3c-1.1,0.5-2.3,0.8-3.7,0.8c-1.7,0-3.1-0.5-4.1-1.5s-1.5-2.4-1.5-4.2c0-1.7,0.5-3.1,1.4-4.1
	c0.9-1.1,2.2-1.6,3.7-1.6c1.4,0,2.5,0.5,3.3,1.3c0.8,0.9,1.2,2,1.2,3.4c0,0.4,0,0.9-0.1,1.4H2.3c0.2,2.2,1.4,3.3,3.6,3.3
	c1.1,0,2.1-0.2,3.2-0.7L9.4,102.3z M5.2,93.5c-0.8,0-1.5,0.3-2,0.8s-0.8,1.3-0.9,2.2h5.3c0-0.1,0-0.2,0-0.3c0-0.8-0.2-1.4-0.6-1.9
	C6.5,93.7,5.9,93.5,5.2,93.5L5.2,93.5z"/>
<path class="st1" d="M27.2,97.1c0,1.8-0.5,3.2-1.4,4.3c-0.9,1.1-2.2,1.6-3.9,1.6c-0.8,0-1.5-0.2-2.2-0.4v4.2h-2.2V92.6
	c1.3-0.6,2.7-1,4.2-1c1.7,0,3,0.5,3.9,1.5C26.7,94.1,27.2,95.4,27.2,97.1L27.2,97.1z M19.8,100.7c0.7,0.3,1.3,0.5,1.9,0.5
	c2.2,0,3.3-1.4,3.3-4c0-1.1-0.3-2-0.8-2.7s-1.3-1-2.4-1c-0.7,0-1.3,0.2-2,0.5V100.7L19.8,100.7z"/>
<path class="st1" d="M30,92.6c1.2-0.7,2.7-1,4.5-1c0.6,0,1.1,0,1.5,0.2l-0.3,1.8c-0.3-0.1-0.7-0.2-1.1-0.2c-1,0-1.8,0.2-2.5,0.6v8.8
	H30V92.6L30,92.6z"/>
<path class="st1" d="M41.5,103c-1.4,0-2.4-0.3-3.1-0.9c-0.7-0.6-1.1-1.4-1.1-2.4c0-1.1,0.4-1.9,1.2-2.5s1.8-0.9,3.1-0.9
	c0.8,0,1.6,0.1,2.3,0.2v-0.9c0-1.5-0.8-2.3-2.5-2.3c-1.1,0-2,0.2-2.9,0.5l-0.4-1.7c1-0.4,2.2-0.6,3.5-0.6c1.5,0,2.6,0.4,3.3,1.1
	c0.8,0.7,1.1,1.8,1.1,3.2v6.2C44.7,102.7,43.2,103,41.5,103z M43.7,100.9v-2.8c-0.7-0.2-1.4-0.3-2-0.3c-1.5,0-2.3,0.6-2.3,1.8
	c0,1.1,0.8,1.7,2.3,1.7C42.5,101.4,43.2,101.2,43.7,100.9z M45,87.1l-2.4,3.3h-2l1.9-3.3H45z"/>
<path class="st1" d="M54.6,102.8c-0.6,0.2-1.2,0.2-1.7,0.2c-2.3,0-3.5-1.3-3.5-3.8v-5.6h-1.5v-1.8h1.5v-2.5l2.2-0.1v2.6h2.7v1.8
	h-2.7v5.6c0,1.3,0.6,2,1.7,2c0.5,0,0.9,0,1.2-0.2L54.6,102.8L54.6,102.8z"/>
<path class="st1" d="M57.8,90c-0.4,0-0.8-0.1-1-0.4c-0.2-0.2-0.3-0.6-0.3-1s0.1-0.7,0.4-0.9c0.2-0.2,0.6-0.4,1-0.4s0.7,0.1,1,0.3
	c0.2,0.2,0.4,0.5,0.4,0.9s-0.1,0.7-0.3,1C58.5,89.9,58.2,90,57.8,90L57.8,90z M58.9,102.7h-2.2V91.9h2.2V102.7z"/>
<path class="st1" d="M66.9,91.6c1.2,0,2.2,0.2,3.2,0.6L69.6,94c-0.9-0.4-1.7-0.6-2.6-0.6c-1,0-1.8,0.3-2.4,1s-0.8,1.6-0.8,2.8
	c0,1.3,0.3,2.2,0.9,2.9c0.6,0.7,1.4,1,2.6,1c0.8,0,1.6-0.2,2.5-0.6l0.4,1.8c-0.9,0.5-1.9,0.7-3,0.7c-1.7,0-3.1-0.5-4.1-1.5
	s-1.4-2.4-1.4-4.2c0-1.7,0.5-3.1,1.4-4.2C64,92.1,65.3,91.6,66.9,91.6L66.9,91.6z"/>
<path class="st1" d="M81.9,97.3c0,1.7-0.5,3.1-1.4,4.1s-2.1,1.5-3.7,1.5s-2.8-0.5-3.7-1.5c-0.9-1-1.4-2.4-1.4-4.2
	c0-1.7,0.5-3.1,1.4-4.1s2.1-1.5,3.7-1.5s2.8,0.5,3.7,1.5C81.5,94.2,81.9,95.6,81.9,97.3L81.9,97.3z M73.9,97.4
	c0,1.2,0.3,2.1,0.8,2.8c0.5,0.7,1.2,1,2.1,1c1,0,1.7-0.3,2.2-1s0.7-1.6,0.7-2.9c0-1.2-0.2-2.1-0.7-2.8c-0.5-0.7-1.2-1-2.1-1
	s-1.6,0.3-2.1,1C74.2,95.2,73.9,96.1,73.9,97.4L73.9,97.4z"/>
<g>
	<g>
		<path class="st0" d="M25.9,10.9c-0.3,0.3-0.3,0.8,0,1.1l6.7,6.7c0.1,0.1,0.3,0.2,0.5,0.2s0.4-0.1,0.5-0.2c0.3-0.3,0.3-0.8,0-1.1
			L27,10.9C26.7,10.6,26.2,10.6,25.9,10.9z"/>
		<path class="st0" d="M47.6,14.6V5.3c0-0.4-0.3-0.8-0.8-0.8c-0.4,0-0.8,0.3-0.8,0.8v9.4c0,0.4,0.3,0.8,0.8,0.8
			C47.3,15.4,47.6,15,47.6,14.6z"/>
		<path class="st0" d="M35.8,1.2c-0.1-0.4-0.5-0.7-0.9-0.6s-0.7,0.5-0.6,0.9l2.3,9.1c0.1,0.3,0.4,0.6,0.7,0.6c0.1,0,0.1,0,0.2,0
			c0.4-0.1,0.7-0.5,0.6-0.9L35.8,1.2z"/>
		<path class="st0" d="M25.8,28.2c2.4,3.4,2.4,5,2.4,6.5c-0.1,10.9,7.4,14.2,11.9,14.5c0.3,0,0.7,0,1,0c6.9,0,10.7-4.4,11-4.8
			l2.5-2.7l0,0l1.2-1.4c1.3-1.3,1.3-3.5,0-4.9c-0.5-0.5-1.1-0.8-1.7-0.9c0.1-0.3,0.1-0.6,0.1-0.8c0-0.8-0.3-1.6-0.9-2.2
			c-0.5-0.5-1.2-0.8-1.8-0.9c0.1-0.4,0.2-0.7,0.2-1.1c0-0.9-0.4-1.8-1-2.4c-0.5-0.5-1.1-0.8-1.7-0.9l4.1-4.1c0.7-0.6,1-1.5,1-2.4
			s-0.4-1.8-1-2.4c-0.7-0.7-1.5-1-2.5-1c-0.9,0-1.8,0.4-2.5,1.1c-4.5,4.7-10.1,10.1-12.3,11c-1.3,0.5-1.6,0.1-2.6-1.5
			c-0.6-1-1.4-2.3-2.7-3.4c-1.3-1.1-2.9-1.1-4.1-0.1C24.9,24.6,24.7,26.6,25.8,28.2z M53.4,35.9c0.5,0,1,0.2,1.4,0.6
			c0.7,0.7,0.7,2,0,2.7l-1.2,1.3c-0.7,0.3-1.4,0.2-2-0.3c0,0,0-0.1-0.1-0.1c-0.6-0.6-0.7-1.6-0.1-2.3L53.4,35.9
			C53.3,35.9,53.4,35.9,53.4,35.9z M52.3,32.5c0.3,0.3,0.5,0.7,0.5,1.1c0,0.4-0.1,0.7-0.4,1l-0.1,0.1l0,0l-2.2,2.2
			c-0.6,0.2-1.3,0.1-1.8-0.4l-0.1-0.1c-0.6-0.6-0.7-1.7-0.1-2.3c0.3-0.2,1.6-1.2,2.3-1.8C50.9,31.9,51.8,32,52.3,32.5z M49.6,28.2
			c0.4,0.4,0.6,0.8,0.6,1.4c0,0.5-0.3,1.1-0.8,1.6c-0.5,0.4-1.5,1.2-2.2,1.8c-0.6,0.2-1.3,0-1.8-0.5l-0.1-0.1
			c-0.3-0.3-0.5-0.8-0.5-1.3s0.2-1,0.5-1.3l1.8-1.8C47.9,27.4,48.9,27.5,49.6,28.2z M27.3,24.6c0.7-0.6,1.5-0.6,2.2,0.1
			c1.1,0.9,1.8,2,2.4,3c0.4,0.7,0.8,1.3,1.3,1.8c0,0,0,0,0,0.1c0.1,0.1,1.5,1.7,0,4c-0.2,0.4-0.1,0.8,0.2,1c0.1,0.1,0.3,0.1,0.4,0.1
			c0.3,0,0.5-0.1,0.6-0.4c1-1.6,1-3.1,0.7-4.2c0.3,0,0.7-0.1,1.1-0.3c3-1.2,10-8.5,12.9-11.6c0.4-0.4,0.8-0.6,1.4-0.6
			c0.5,0,1,0.2,1.4,0.6s0.6,0.8,0.6,1.4c0,0.5-0.2,1-0.6,1.4l-7.7,7.7c-0.6,0.6-1,1.5-1,2.4s0.3,1.7,1,2.4l0,0
			c0.5,0.5,1.2,0.9,1.9,1c-0.3,1.1,0,2.3,0.9,3.1l0,0l0,0c0.6,0.6,1.5,1,2.3,1c-0.1,0.9,0.2,1.9,0.9,2.6c0,0,0,0,0.1,0.1
			c0.5,0.5,1,0.7,1.6,0.9l-1.1,1.3l0,0c0,0-3.8,4.6-10.7,4.2c-0.5,0-3-0.3-5.5-1.9c0.1,0,0.2,0,0.4,0c0.1,0,0.2,0,0.3,0
			c1.9-0.1,3.6-1.3,5.2-3.4c0.2-0.3,0.2-0.8-0.2-1.1c-0.3-0.2-0.8-0.2-1.1,0.2c-1.3,1.8-2.6,2.7-4,2.8c-2,0.1-3.5-1.4-3.5-1.5
			l-0.1-0.1c-1.2-1.9-2-4.4-2-8c0-2-0.2-3.8-2.6-7.3C26.5,26.5,26.4,25.4,27.3,24.6z"/>
		<polygon class="st0" points="39.1,16.1 37.4,16.3 38.6,17.5 38.4,19.2 39.9,18.4 41.4,19.2 41.1,17.5 42.3,16.3 40.6,16.1 
			39.9,14.6 		"/>
		<polygon class="st0" points="41.6,6.9 42.1,8.1 42.7,7 43.9,6.9 43.1,5.9 43.3,4.7 42.2,5.2 41.1,4.6 41.2,5.9 40.3,6.7 		"/>
		<polygon class="st0" points="31.4,6.4 30.5,5.6 30.4,6.8 29.3,7.4 30.4,7.9 30.7,9.2 31.5,8.2 32.8,8.4 32.1,7.3 32.7,6.2 		"/>
	</g>
</g>
<g>
	<path class="st0" d="M126.8,80.8l-2.2-5.3c-0.4-0.9-1-1.3-2-1.3h-0.7v6.6H117v-19h6.1c2.4,0,4.2,0.5,5.6,1.6c1.4,1,2,2.4,2,4.3
		c0,1.5-0.3,2.6-0.9,3.4c-0.6,0.8-1.4,1.3-2.4,1.7c0.9,0.4,1.6,1.2,2.2,2.5l2.4,5.6L126.8,80.8L126.8,80.8z M121.9,65.8v4.3h1
		c1.9,0,2.9-0.7,2.9-2.1c0-0.8-0.2-1.4-0.7-1.7c-0.5-0.3-1.2-0.5-2.2-0.5L121.9,65.8z"/>
	<path class="st0" d="M144.8,77.3h-6.2l-0.9,3.5h-5c0.9-3.3,1.9-6.8,3-10.3c1.2-3.5,2.3-6.4,3.4-8.7h5c1.1,2.3,2.2,5.2,3.4,8.8
		c1.2,3.5,2.2,7,3,10.3h-5L144.8,77.3z M147,55.8l-3.3,4.7h-4l2.4-4.7H147z M139.6,73.2h4.1c-0.8-3.1-1.5-5.2-2-6.3
		C141.1,68,140.4,70.1,139.6,73.2z"/>
	<path class="st0" d="M152.5,61.7h6.4c2.4,0,4.3,0.6,5.7,1.8c1.4,1.2,2.1,2.9,2.1,5s-0.7,3.7-2.1,4.9c-1.4,1.2-3.3,1.8-5.7,1.8h-1.6
		v5.6h-4.8L152.5,61.7L152.5,61.7z M161.6,68.5c0-1-0.2-1.6-0.7-2s-1.2-0.6-2.1-0.6h-1.4v5.3h1.4c1,0,1.7-0.2,2.1-0.6
		C161.4,70.1,161.6,69.4,161.6,68.5L161.6,68.5z"/>
	<path class="st0" d="M169,61.7h4.8v19H169V61.7z"/>
	<path class="st0" d="M177.1,61.8h6.9c2.9,0,5.2,0.8,6.9,2.5c1.8,1.7,2.6,4,2.6,6.9c0,3-0.9,5.3-2.6,7c-1.8,1.7-4.1,2.6-6.9,2.6
		h-6.9V61.8z M188.5,71.2c0-1.8-0.4-3.2-1.1-4.1c-0.8-0.9-1.9-1.3-3.5-1.3H182v10.9h1.9c1.6,0,2.8-0.5,3.6-1.4
		C188.1,74.4,188.5,73.1,188.5,71.2L188.5,71.2z"/>
	<path class="st0" d="M213,71.3c0,3-0.8,5.4-2.4,7.2c-1.6,1.8-3.8,2.7-6.5,2.7s-4.9-0.9-6.5-2.7c-1.6-1.8-2.4-4.2-2.4-7.2
		s0.8-5.4,2.4-7.2c1.6-1.8,3.8-2.7,6.5-2.7s4.9,0.9,6.5,2.7C212.2,65.9,213,68.3,213,71.3L213,71.3z M201.3,75.5
		c0.7,1,1.7,1.4,2.9,1.4c1.3,0,2.2-0.5,2.9-1.4c0.7-1,1-2.3,1-4.2c0-1.8-0.3-3.2-1-4.2s-1.6-1.4-2.9-1.4c-1.3,0-2.3,0.5-2.9,1.4
		c-0.7,1-1,2.3-1,4.2C200.2,73.1,200.6,74.5,201.3,75.5z"/>
</g>
<g>
	<path class="st1" d="M133.2,89.8c1.1-0.8,2.5-1.5,4.1-2.1h2v14.4H137V90c-1,0.5-2,1-2.9,1.5L133.2,89.8z"/>
	<path class="st1" d="M144.8,89.6l-0.3,3.6c0.7-0.1,1.2-0.1,1.6-0.1c1.7,0,3,0.4,3.8,1.2c0.9,0.8,1.3,1.9,1.3,3.3
		c0,1.5-0.5,2.6-1.5,3.5s-2.3,1.3-4,1.3c-1.5,0-2.9-0.3-4.1-0.9l0.7-1.8c1.1,0.5,2.3,0.8,3.4,0.8c1.1,0,1.8-0.3,2.4-0.8
		c0.5-0.5,0.8-1.2,0.8-2.1c0-1.8-1.2-2.6-3.6-2.6c-0.8,0-1.8,0.1-3,0.3l0.7-7.6h7.2v1.9L144.8,89.6z"/>
	<path class="st1" d="M172.7,102.1v-6.8c0-1.7-0.8-2.5-2.3-2.5c-1,0-1.8,0.3-2.6,0.8c0.2,0.5,0.3,1.2,0.3,1.9v6.6H166v-6.8
		c0-1.7-0.8-2.5-2.3-2.5c-0.8,0-1.6,0.2-2.3,0.6v8.8h-2.2V92c1.4-0.7,3-1,4.6-1c1.3,0,2.3,0.3,3.1,1c1.2-0.7,2.4-1,3.7-1
		c1.4,0,2.5,0.4,3.3,1.1s1.1,1.7,1.1,3v7H172.7z"/>
	<path class="st1" d="M179.3,89.4c-0.4,0-0.8-0.1-1-0.4c-0.2-0.2-0.3-0.6-0.3-1s0.1-0.7,0.4-0.9c0.2-0.2,0.6-0.4,1-0.4
		s0.7,0.1,1,0.3c0.2,0.2,0.4,0.5,0.4,0.9s-0.1,0.7-0.3,1C180,89.2,179.7,89.3,179.3,89.4L179.3,89.4z M180.4,102.1h-2.2V91.2h2.2
		V102.1z"/>
	<path class="st1" d="M183.8,102.1V92c1.4-0.7,3-1,4.7-1c1.5,0,2.6,0.4,3.4,1.1c0.8,0.7,1.2,1.7,1.2,3v7h-2.2v-6.8
		c0-1.7-0.8-2.5-2.4-2.5c-0.9,0-1.8,0.2-2.5,0.6v8.8L183.8,102.1L183.8,102.1z"/>
</g>
<g>
	<g>
		<path class="st0" d="M163.7,7.5c-0.4,0-0.7-0.3-0.7-0.7v-6c0-0.4,0.3-0.7,0.7-0.7s0.7,0.3,0.7,0.7v6
			C164.4,7.2,164.1,7.5,163.7,7.5z"/>
	</g>
	<g>
		<path class="st0" d="M154.6,9.9c-0.3,0-0.5-0.1-0.6-0.4L152.5,7c-0.2-0.3-0.1-0.8,0.3-1c0.3-0.2,0.8-0.1,1,0.3l1.5,2.6
			c0.2,0.3,0.1,0.8-0.3,1C154.9,9.9,154.7,9.9,154.6,9.9z"/>
	</g>
	<g>
		<path class="st0" d="M148,16.6c-0.1,0-0.2,0-0.4-0.1l-5.2-3c-0.3-0.2-0.5-0.6-0.3-1c0.2-0.3,0.6-0.5,1-0.3l5.2,3
			c0.3,0.2,0.5,0.6,0.3,1C148.5,16.4,148.2,16.6,148,16.6z"/>
	</g>
	<g>
		<path class="st0" d="M145.6,25.6h-3c-0.4,0-0.7-0.3-0.7-0.7c0-0.4,0.3-0.7,0.7-0.7h3c0.4,0,0.7,0.3,0.7,0.7
			C146.3,25.3,146,25.6,145.6,25.6z"/>
	</g>
	<g>
		<path class="st0" d="M184.9,25.6h-3c-0.4,0-0.7-0.3-0.7-0.7c0-0.4,0.3-0.7,0.7-0.7h3c0.4,0,0.7,0.3,0.7,0.7
			C185.6,25.3,185.3,25.6,184.9,25.6z"/>
	</g>
	<g>
		<path class="st0" d="M179.4,16.6c-0.3,0-0.5-0.1-0.6-0.4c-0.2-0.3-0.1-0.8,0.3-1l5.2-3c0.3-0.2,0.8-0.1,1,0.3
			c0.2,0.3,0.1,0.8-0.3,1l-5.2,3C179.7,16.5,179.5,16.6,179.4,16.6z"/>
	</g>
	<g>
		<path class="st0" d="M172.8,9.9c-0.1,0-0.2,0-0.4-0.1c-0.3-0.2-0.5-0.6-0.3-1l1.5-2.6c0.2-0.3,0.6-0.5,1-0.3
			c0.3,0.2,0.5,0.6,0.3,1l-1.5,2.6C173.3,9.8,173,9.9,172.8,9.9z"/>
	</g>
	<g>
		<g>
			<g>
				<path class="st0" d="M166.7,17.5h-6c-0.4,0-0.7-0.3-0.7-0.7v-3c0-0.4,0.3-0.7,0.7-0.7h6c0.4,0,0.7,0.3,0.7,0.7v3
					C167.5,17.2,167.1,17.5,166.7,17.5z M161.4,16.1h4.6v-1.6h-4.6V16.1z"/>
			</g>
		</g>
		<g>
			<path class="st0" d="M164.5,19.6C164.4,19.6,164.4,19.6,164.5,19.6c-0.5,0-1,0-1.5,0c-0.2,0-0.4-0.1-0.5-0.2s-0.2-0.3-0.2-0.5
				v-2.1c0-0.4,0.3-0.7,0.7-0.7h1.5c0.4,0,0.7,0.3,0.7,0.7v2.1c0,0.2-0.1,0.4-0.2,0.5C164.8,19.5,164.6,19.6,164.5,19.6z
				 M163.7,18.1L163.7,18.1v-0.6h-0.1L163.7,18.1L163.7,18.1z"/>
		</g>
		<g>
			<g>
				<path class="st0" d="M174.9,24.6L174.9,24.6c-0.2,0-0.4-0.1-0.5-0.2c-0.2-0.2-0.3-0.4-0.5-0.5l0,0c-0.2-0.2-0.3-0.3-0.5-0.5
					c-0.1-0.1-0.2-0.3-0.2-0.5s0.1-0.4,0.2-0.5l2.2-2.2c0.3-0.3,0.8-0.3,1,0l1.1,1.1c0.3,0.3,0.3,0.7,0,1l-2.2,2.2
					C175.3,24.5,175.1,24.6,174.9,24.6z M174.9,22.8L174.9,22.8l1.1-1.1l0,0L174.9,22.8L174.9,22.8z"/>
			</g>
		</g>
		<g>
			<g>
				<g>
					<path class="st0" d="M161.9,33.7c-0.1-0.1-0.2-0.3-0.2-0.5c0-0.4,0.3-0.7,0.7-0.7h10.4c0.4,0,0.7,0.3,0.7,0.7s-0.3,0.7-0.7,0.7
						h-10.4C162.2,34,162.1,33.9,161.9,33.7z"/>
				</g>
				<g>
					<path class="st0" d="M163.4,35.3c-0.1-0.1-0.2-0.3-0.2-0.5l-0.1-6.6c0-0.4,0.3-0.7,0.7-0.6c0.4,0,0.7,0.4,0.7,0.8l0.1,6.6
						c0,0.4-0.3,0.7-0.7,0.6C163.7,35.5,163.5,35.4,163.4,35.3z"/>
				</g>
			</g>
		</g>
		<g>
			<g>
				<path class="st0" d="M163.7,49.8c-8.7,0-15.8-7.1-15.8-15.8s7.1-15.8,15.8-15.8s15.8,7.1,15.8,15.8S172.4,49.8,163.7,49.8z
					 M163.7,19.6c-7.9,0-14.4,6.5-14.4,14.4s6.5,14.4,14.4,14.4s14.4-6.5,14.4-14.4S171.6,19.6,163.7,19.6z"/>
			</g>
		</g>
		<g>
			<g>
				<path class="st0" d="M163.7,46.8c-7.1,0-12.8-5.8-12.8-12.8s5.8-12.8,12.8-12.8c7.1,0,12.8,5.8,12.8,12.8S170.8,46.8,163.7,46.8
					z M163.7,22.6c-6.3,0-11.4,5.1-11.4,11.4s5.1,11.4,11.4,11.4c6.3,0,11.4-5.1,11.4-11.4S170,22.6,163.7,22.6z"/>
			</g>
		</g>
	</g>
</g>
<g>
	<path class="st0" d="M255.1,81.1c-2.9,0-5.1-0.9-6.7-2.6c-1.6-1.8-2.4-4.1-2.4-7.1s0.8-5.5,2.4-7.3c1.6-1.8,3.9-2.7,7-2.7
		c1.5,0,3,0.3,4.6,1l-1.1,4.1c-1.5-0.5-2.6-0.8-3.4-0.8c-1.6,0-2.7,0.5-3.4,1.4c-0.7,1-1.1,2.4-1.1,4.2c0,1.9,0.4,3.3,1.1,4.2
		c0.7,0.9,1.8,1.4,3.3,1.4c1.3,0,2.6-0.4,3.9-1.1l0.9,4.1c-1.4,0.8-3.1,1.2-5,1.2C255.2,81.1,255.1,81.1,255.1,81.1z"/>
	<path class="st0" d="M279,71.3c0,3-0.8,5.4-2.4,7.2c-1.6,1.8-3.8,2.7-6.5,2.7s-4.9-0.9-6.5-2.7c-1.6-1.8-2.4-4.2-2.4-7.2
		s0.8-5.4,2.4-7.2c1.6-1.8,3.8-2.7,6.5-2.7s4.9,0.9,6.5,2.7C278.2,65.9,279,68.3,279,71.3L279,71.3z M267.2,75.5
		c0.7,1,1.7,1.4,2.9,1.4c1.3,0,2.2-0.5,2.9-1.4c0.7-1,1-2.3,1-4.2c0-1.8-0.3-3.2-1-4.2s-1.6-1.4-2.9-1.4s-2.3,0.5-2.9,1.4
		c-0.7,1-1,2.3-1,4.2C266.2,73.1,266.5,74.5,267.2,75.5z"/>
	<path class="st0" d="M281.6,61.7h4.8v15h7.1v4.1h-11.9V61.7z"/>
	<path class="st0" d="M308.1,80.8h-12.2v-19h12.2v4.1h-7.4v3.3h6.3v4.1h-6.3v3.5h7.4V80.8z"/>
	<path class="st0" d="M314.5,65.8h-4.7v-4.1H324v4.1h-4.7v15h-4.8V65.8z"/>
	<path class="st0" d="M334.8,77.3h-6.2l-0.9,3.5h-5c0.9-3.3,1.9-6.8,3-10.3c1.2-3.5,2.3-6.4,3.4-8.7h5c1.1,2.3,2.2,5.2,3.4,8.8
		c1.2,3.5,2.2,7,3,10.3h-5L334.8,77.3z M329.7,73.2h4.1c-0.8-3.1-1.5-5.2-2-6.3C331.2,68,330.5,70.1,329.7,73.2z"/>
</g>
<g>
	<path class="st1" d="M264.4,102.1v-15h2.2c2,3.7,4.5,7.6,7.5,11.9c0-0.6-0.1-1.2-0.1-2v-9.9h2.1v15h-2.2c-1.7-2.3-3.2-4.3-4.3-6
		c-1.1-1.7-2.2-3.4-3.2-5.3c0.1,0.7,0.1,1.5,0.1,2.4v8.8L264.4,102.1z"/>
	<path class="st1" d="M283.1,102.4c-1.4,0-2.4-0.3-3.1-0.9s-1.1-1.4-1.1-2.4c0-1.1,0.4-1.9,1.2-2.5c0.8-0.6,1.8-0.9,3.1-0.9
		c0.8,0,1.6,0.1,2.3,0.2V95c0-1.5-0.8-2.3-2.5-2.3c-1.1,0-2,0.2-2.9,0.5l-0.4-1.7c1-0.4,2.2-0.6,3.5-0.6c1.5,0,2.6,0.4,3.3,1.1
		c0.8,0.7,1.1,1.8,1.1,3.2v6.2C286.4,102,284.9,102.4,283.1,102.4z M285.4,100.3v-2.8c-0.7-0.2-1.4-0.3-2-0.3
		c-1.5,0-2.3,0.6-2.3,1.8c0,1.1,0.8,1.7,2.3,1.7C284.2,100.7,284.9,100.6,285.4,100.3z"/>
	<path class="st1" d="M296.9,93.3c-1.2-0.4-2.1-0.5-2.9-0.5c-1.3,0-1.9,0.5-1.9,1.3c0,0.5,0.2,0.8,0.5,1s0.9,0.4,1.6,0.7
		c1.3,0.4,2.2,0.8,2.8,1.3c0.6,0.5,0.9,1.2,0.9,2.1c0,1.1-0.4,1.8-1.2,2.4c-0.8,0.6-1.8,0.8-3.1,0.8c-1.4,0-2.7-0.2-3.7-0.7l0.3-1.8
		c1.1,0.5,2.3,0.7,3.3,0.7c0.6,0,1.2-0.1,1.5-0.4c0.4-0.2,0.6-0.6,0.6-1c0-0.5-0.2-0.8-0.5-1c-0.4-0.2-1.1-0.5-2.1-0.8
		s-1.8-0.7-2.3-1.2s-0.8-1.2-0.8-2.1c0-1,0.3-1.8,1-2.4s1.7-0.8,2.9-0.8c1.3,0,2.4,0.2,3.3,0.6L296.9,93.3z"/>
	<path class="st1" d="M303.6,102.4c-1.4,0-2.4-0.3-3.1-0.9s-1.1-1.4-1.1-2.4c0-1.1,0.4-1.9,1.2-2.5c0.8-0.6,1.8-0.9,3.1-0.9
		c0.8,0,1.6,0.1,2.3,0.2V95c0-1.5-0.8-2.3-2.5-2.3c-1.1,0-2,0.2-2.9,0.5l-0.4-1.7c1-0.4,2.2-0.6,3.5-0.6c1.5,0,2.6,0.4,3.3,1.1
		c0.8,0.7,1.1,1.8,1.1,3.2v6.2C306.9,102,305.4,102.4,303.6,102.4z M305.9,100.3v-2.8c-0.7-0.2-1.4-0.3-2-0.3
		c-1.5,0-2.3,0.6-2.3,1.8c0,1.1,0.8,1.7,2.3,1.7C304.7,100.7,305.4,100.6,305.9,100.3z"/>
	<path class="st1" d="M313.4,98.6c0,0.7,0.1,1.1,0.3,1.4c0.2,0.3,0.5,0.4,1,0.4c0.2,0,0.5,0,0.6-0.1l0.2,1.7
		c-0.4,0.1-0.8,0.2-1.2,0.2c-2,0-3-1.2-3-3.7v-12l2.2-0.1v12.2H313.4z"/>
</g>
<g>
	<path class="st0" d="M287.6,49.1c-0.1,0-0.1,0-0.2,0c-0.5-0.1-0.7-0.6-0.6-1l1-4.2c0.2-1-0.3-2-1.3-2.1c-4.8-0.9-9.3-0.7-9.8-5.3
		c-0.2-1.7,0.4-3.2,1.6-4.3L291.1,19c1.5-1.5,2.4-3.6,2.4-5.7V10c0-0.5,0.4-0.9,0.9-0.9s0.9,0.4,0.9,0.9v3.1c0,2.6-1.1,5.1-2.9,6.9
		l-12.8,13.3c-0.8,0.7-1.2,1.7-1.1,2.8c0.3,3,2.8,2.8,8.4,3.9c2,0.4,3.1,2.4,2.7,4.2l-1,4.2C288.3,48.8,288,49.1,287.6,49.1z"/>
	<path class="st0" d="M290.7,40.6c-1.3-0.9-4.9-1.9-5.7-1.9c-0.5,0-0.9-0.4-0.9-0.9s0.4-0.9,0.9-0.9c1.2,0,5.1,1.2,6.7,2.2
		c3.4,2.3,5.8,0.2,5.8-1.3c0-1.4-1.8-3.1-4-4c-0.4-0.2-0.7-0.7-0.5-1.1c0.2-0.4,0.7-0.7,1.1-0.5c2.9,1.1,5,3.4,5.1,5.5
		C299.2,40.6,295.4,43.8,290.7,40.6z"/>
	<path class="st0" d="M271.5,49.6c-0.3-0.4-0.3-0.9,0.1-1.2l4-3.5c0.4-0.3,0.9-0.3,1.2,0.1c0.3,0.4,0.3,0.9-0.1,1.2l-4,3.5
		C272.3,50,271.8,50,271.5,49.6z"/>
	<path class="st0" d="M268.6,42.6c-0.1-0.5,0.2-0.9,0.7-1l5.4-1c0.5-0.1,0.9,0.2,1,0.7s-0.2,0.9-0.7,1l-5.4,1
		C269.2,43.4,268.7,43.1,268.6,42.6z"/>
	<path class="st0" d="M277.2,52.8c-0.4-0.2-0.7-0.7-0.5-1.1l1.8-4.7c0.2-0.4,0.7-0.7,1.1-0.5s0.7,0.7,0.5,1.1l-1.8,4.7
		C278.1,52.7,277.6,53,277.2,52.8z"/>
</g>
</svg>
